# xmcd
#
# Track frame offsets: 
#        150
#        10232
#        22117
#        31838
#        44541
#        55781
#        67348
#        83124
#        97700
#
# Disc length: 1461 seconds
#
# Revision: 0
# Processed by: cddbd v1.5.2PL0 Copyright (c) Steve Scherf et al.
# Submitted via: ExactAudioCopyFreeDBPlugin 1.0
#
DISCID=6c05b309
DTITLE=Git Gone - Rockin' Tunes
DYEAR=1995
DGENRE=Country
TTITLE0=Big Hunk Of Love
TTITLE1=I Could Love You
TTITLE2=Love's Made A Fool Of You
TTITLE3=No Money Down
TTITLE4=Ode To Better Living
TTITLE5=I Want To Be In Your Dreams
TTITLE6=My Baby Thinks He's A Train
TTITLE7=Outstanding Moment
TTITLE8=Sweet Vermouth
EXTD=
EXTT0=
EXTT1=
EXTT2=
EXTT3=
EXTT4=
EXTT5=
EXTT6=
EXTT7=
EXTT8=
PLAYORDER=
